<?xml version="1.0" encoding="UTF-8"?>
<!DOCTYPE svg PUBLIC "-//W3C//DTD SVG 1.1//EN" "http://www.w3.org/Graphics/SVG/1.1/DTD/svg11.dtd">
<svg xmlns="http://www.w3.org/2000/svg" version="1.1" width="353px" height="191px" style="shape-rendering:geometricPrecision; text-rendering:geometricPrecision; image-rendering:optimizeQuality; fill-rule:evenodd; clip-rule:evenodd" xmlns:xlink="http://www.w3.org/1999/xlink">
<g><path style="opacity:0.951" fill="#ff5f13" d="M 76.5,13.5 C 121.835,13.3333 167.168,13.5 212.5,14C 213.573,15.3129 214.24,16.8129 214.5,18.5C 212.175,28.799 210.009,39.1323 208,49.5C 207.333,55.1667 207.333,60.8333 208,66.5C 210.794,54.1948 213.461,41.8615 216,29.5C 216.785,27.714 217.951,26.214 219.5,25C 234.5,24.3333 249.5,24.3333 264.5,25C 265.833,25.6667 267.167,26.3333 268.5,27C 275.207,38.9151 282.04,50.7484 289,62.5C 290.937,65.9143 292.104,69.581 292.5,73.5C 291.628,78.5259 290.628,83.5259 289.5,88.5C 290.4,90.2387 291.067,92.072 291.5,94C 290.46,98.868 289.293,103.701 288,108.5C 287.25,109.126 286.416,109.626 285.5,110C 278.508,110.5 271.508,110.666 264.5,110.5C 263.529,93.0409 254.529,86.5409 237.5,91C 228.634,94.366 222.634,100.533 219.5,109.5C 195.174,110.666 170.84,110.833 146.5,110C 147.684,104.407 146.351,99.4067 142.5,95C 137.214,89.8932 130.881,88.2265 123.5,90C 112.675,92.9924 105.675,99.8257 102.5,110.5C 81.8226,110.833 61.1559,110.5 40.5,109.5C 43.7114,104.911 47.0447,100.411 50.5,96C 62.8333,95.6667 75.1667,95.3333 87.5,95C 90.6207,91.2573 93.6207,87.424 96.5,83.5C 75.1745,82.6669 53.8411,82.1669 32.5,82C 36.0233,77.9776 39.3566,73.811 42.5,69.5C 70.1667,68.8333 97.8333,68.1667 125.5,67.5C 128.379,63.576 131.379,59.7427 134.5,56C 113.167,55.6667 91.8333,55.3333 70.5,55C 73.9255,50.1518 77.5922,45.4851 81.5,41C 107.833,40.6667 134.167,40.3333 160.5,40C 163.691,36.31 166.691,32.4767 169.5,28.5C 135.172,27.6668 100.838,27.1668 66.5,27C 70.4363,22.9041 73.7696,18.4041 76.5,13.5 Z M 232.5,32.5 C 242.273,32.0525 251.939,32.5525 261.5,34C 266.963,41.7543 271.797,49.921 276,58.5C 277.15,60.7538 277.484,63.0871 277,65.5C 259.574,66.6582 242.074,66.8249 224.5,66C 223.941,65.2753 223.608,64.4419 223.5,63.5C 225.603,53.819 227.77,44.1523 230,34.5C 230.995,33.9341 231.828,33.2674 232.5,32.5 Z"/></g>
<g><path style="opacity:0.919" fill="#fe5f12" d="M 123.5,92.5 C 142.956,93.2793 148.456,102.613 140,120.5C 132.373,130.046 122.873,132.879 111.5,129C 103.148,120.997 102.315,112.164 109,102.5C 112.977,97.7741 117.811,94.4408 123.5,92.5 Z M 122.5,104.5 C 130.742,104.243 133.242,107.91 130,115.5C 124.223,121.418 119.723,120.751 116.5,113.5C 116.96,109.39 118.96,106.39 122.5,104.5 Z"/></g>
<g><path style="opacity:0.91" fill="#ff5f13" d="M 240.5,92.5 C 257.978,92.4766 264.145,100.81 259,117.5C 251.402,130.062 240.902,133.562 227.5,128C 221.184,121.742 220.017,114.576 224,106.5C 227.685,99.5906 233.185,94.9239 240.5,92.5 Z M 240.5,104.5 C 245.414,103.782 248.414,105.782 249.5,110.5C 247.348,117.234 243.015,119.734 236.5,118C 233.362,115.581 232.862,112.747 235,109.5C 236.73,107.598 238.563,105.931 240.5,104.5 Z"/></g>
<g><path style="opacity:1" fill="#eeefef" d="M 30.5,160.5 C 34.2273,158.748 38.2273,158.081 42.5,158.5C 42.5,159.5 42.5,160.5 42.5,161.5C 41.8172,165.02 39.8172,167.52 36.5,169C 24.089,173.282 16.7557,169.115 14.5,156.5C 15.5667,147.933 20.4,143.267 29,142.5C 37.7899,142.617 42.6232,146.95 43.5,155.5C 37.9546,155.678 32.6212,155.178 27.5,154C 25.7365,157.448 26.7365,159.615 30.5,160.5 Z"/></g>
<g><path style="opacity:1" fill="#eeefef" d="M 90.5,160.5 C 94.2273,158.748 98.2273,158.081 102.5,158.5C 102.5,159.5 102.5,160.5 102.5,161.5C 101.817,165.02 99.8172,167.52 96.5,169C 84.089,173.282 76.7557,169.115 74.5,156.5C 75.5667,147.933 80.4,143.267 89,142.5C 97.7899,142.617 102.623,146.95 103.5,155.5C 97.9546,155.678 92.6212,155.178 87.5,154C 85.7365,157.448 86.7365,159.615 90.5,160.5 Z"/></g>
<g><path style="opacity:1" fill="#eeefef" d="M 175.5,142.5 C 189.718,141.883 195.552,148.549 193,162.5C 188.666,169.283 182.499,171.783 174.5,170C 164.381,165.771 161.548,158.604 166,148.5C 168.551,145.319 171.718,143.319 175.5,142.5 Z M 176.5,153.5 C 180.691,152.869 182.525,154.535 182,158.5C 180.236,160.661 178.403,160.828 176.5,159C 175.248,157.172 175.248,155.339 176.5,153.5 Z"/></g>
<g><path style="opacity:1" fill="#eaebeb" d="M 316.5,142.5 C 320.747,142.178 324.747,143.011 328.5,145C 330.747,146.995 331.747,149.495 331.5,152.5C 328.482,152.335 325.482,152.502 322.5,153C 332.442,154.549 334.776,159.549 329.5,168C 323.194,171.272 316.861,171.272 310.5,168C 309.214,165.978 308.214,163.811 307.5,161.5C 310.785,160.676 314.118,160.176 317.5,160C 309.574,159.319 306.741,155.152 309,147.5C 310.913,144.72 313.413,143.053 316.5,142.5 Z M 319.5,150.5 C 320.289,150.783 320.956,151.283 321.5,152C 320.184,152.528 319.517,152.028 319.5,150.5 Z M 318.5,161.5 C 319.497,160.287 320.497,160.454 321.5,162C 320.423,162.47 319.423,162.303 318.5,161.5 Z"/></g>
<g><path style="opacity:1" fill="#fbfbfb" d="M 133.5,150.5 C 130.167,150.5 126.833,150.5 123.5,150.5C 123.5,151.5 123.5,152.5 123.5,153.5C 126.5,153.5 129.5,153.5 132.5,153.5C 132.5,155.5 132.5,157.5 132.5,159.5C 129.5,159.5 126.5,159.5 123.5,159.5C 123.5,160.5 123.5,161.5 123.5,162.5C 126.833,162.5 130.167,162.5 133.5,162.5C 133.5,164.833 133.5,167.167 133.5,169.5C 126.833,169.5 120.167,169.5 113.5,169.5C 113.5,160.833 113.5,152.167 113.5,143.5C 120.167,143.5 126.833,143.5 133.5,143.5C 133.5,145.833 133.5,148.167 133.5,150.5 Z"/></g>
<g><path style="opacity:1" fill="#efeff0" d="M 134.5,143.5 C 138.555,143.176 142.555,143.509 146.5,144.5C 147.645,147.748 148.479,151.081 149,154.5C 150.31,150.93 151.143,147.263 151.5,143.5C 155.846,143.334 160.179,143.501 164.5,144C 161.475,152.075 158.641,160.242 156,168.5C 151.599,169.467 147.099,169.8 142.5,169.5C 139.833,160.833 137.167,152.167 134.5,143.5 Z"/></g>
<g><path style="opacity:1" fill="#f2f3f3" d="M 278.5,168.5 C 278.5,168.833 278.5,169.167 278.5,169.5C 274.629,169.815 270.962,169.482 267.5,168.5C 266.848,167.275 265.681,166.608 264,166.5C 262.615,166.514 261.449,166.848 260.5,167.5C 256.893,168.824 252.893,169.491 248.5,169.5C 244.5,169.333 240.5,169.167 236.5,169C 235.283,167.352 234.45,165.519 234,163.5C 233.505,165.473 233.338,167.473 233.5,169.5C 229.833,169.5 226.167,169.5 222.5,169.5C 222.5,160.833 222.5,152.167 222.5,143.5C 228.842,143.334 235.175,143.5 241.5,144C 246.141,145.439 248.141,148.606 247.5,153.5C 247.949,156.637 246.949,159.137 244.5,161C 245.708,163.25 247.041,165.417 248.5,167.5C 251.693,159.922 254.693,152.255 257.5,144.5C 261.783,143.508 266.116,143.174 270.5,143.5C 273.167,151.833 275.833,160.167 278.5,168.5 Z M 233.5,151.5 C 236.861,152.203 237.194,153.537 234.5,155.5C 233.571,154.311 233.238,152.978 233.5,151.5 Z M 263.5,156.5 C 264.776,157.386 264.776,158.386 263.5,159.5C 262.913,158.767 262.913,157.767 263.5,156.5 Z"/></g>
<g><path style="opacity:1" fill="#eeefef" d="M 44.5,143.5 C 48.8839,143.174 53.2172,143.508 57.5,144.5C 58.4432,149.605 59.7766,149.605 61.5,144.5C 65.7953,143.339 70.1287,143.172 74.5,144C 71.7866,147.924 69.4532,152.091 67.5,156.5C 69.8333,160.5 72.1667,164.5 74.5,168.5C 70.1667,169.833 65.8333,169.833 61.5,168.5C 60.1667,164.5 58.8333,164.5 57.5,168.5C 53.1667,169.833 48.8333,169.833 44.5,168.5C 46.96,164.414 49.2934,160.247 51.5,156C 48.7624,152.021 46.429,147.855 44.5,143.5 Z"/></g>
<g><path style="opacity:0.361" fill="#909596" d="M 280.5,143.5 C 280.5,152.167 280.5,160.833 280.5,169.5C 279.833,169.5 279.167,169.5 278.5,169.5C 278.5,169.167 278.5,168.833 278.5,168.5C 279.167,160.167 279.833,151.833 280.5,143.5 Z"/></g>
<g><path style="opacity:1" fill="#f4f5f5" d="M 280.5,143.5 C 283.518,143.335 286.518,143.502 289.5,144C 291.333,146.5 293.167,149 295,151.5C 295.497,148.854 295.664,146.187 295.5,143.5C 299.167,143.5 302.833,143.5 306.5,143.5C 306.5,152.167 306.5,160.833 306.5,169.5C 303.15,169.665 299.817,169.498 296.5,169C 294.667,166.5 292.833,164 291,161.5C 290.503,164.146 290.336,166.813 290.5,169.5C 287.167,169.5 283.833,169.5 280.5,169.5C 280.5,160.833 280.5,152.167 280.5,143.5 Z"/></g>
<g><path style="opacity:0.58" fill="#9ca0a1" d="M 133.5,150.5 C 130.695,151.319 127.695,151.819 124.5,152C 127.365,152.183 130.031,152.683 132.5,153.5C 129.5,153.5 126.5,153.5 123.5,153.5C 123.5,152.5 123.5,151.5 123.5,150.5C 126.833,150.5 130.167,150.5 133.5,150.5 Z"/></g>
<g><path style="opacity:0.333" fill="#9ea2a2" d="M 212.5,169.5 C 212.5,163.833 212.5,158.167 212.5,152.5C 214.833,152.5 217.167,152.5 219.5,152.5C 219.5,149.833 219.5,147.167 219.5,144.5C 211.5,144.5 203.5,144.5 195.5,144.5C 195.5,147.167 195.5,149.833 195.5,152.5C 197.833,152.5 200.167,152.5 202.5,152.5C 202.5,158.167 202.5,163.833 202.5,169.5C 201.512,164.36 201.179,159.026 201.5,153.5C 199.167,153.5 196.833,153.5 194.5,153.5C 194.5,150.167 194.5,146.833 194.5,143.5C 203.167,143.5 211.833,143.5 220.5,143.5C 220.5,146.833 220.5,150.167 220.5,153.5C 218.167,153.5 215.833,153.5 213.5,153.5C 213.821,159.026 213.488,164.36 212.5,169.5 Z"/></g>
<g><path style="opacity:1" fill="#fefefe" d="M 212.5,169.5 C 209.167,169.5 205.833,169.5 202.5,169.5C 202.5,163.833 202.5,158.167 202.5,152.5C 200.167,152.5 197.833,152.5 195.5,152.5C 195.5,149.833 195.5,147.167 195.5,144.5C 203.5,144.5 211.5,144.5 219.5,144.5C 219.5,147.167 219.5,149.833 219.5,152.5C 217.167,152.5 214.833,152.5 212.5,152.5C 212.5,158.167 212.5,163.833 212.5,169.5 Z"/></g>
<g><path style="opacity:0.769" fill="#a8acad" d="M 42.5,161.5 C 42.5,160.5 42.5,159.5 42.5,158.5C 38.2273,158.081 34.2273,158.748 30.5,160.5C 30.9528,159.542 31.6195,158.708 32.5,158C 36.1516,157.501 39.8183,157.335 43.5,157.5C 43.7678,159.099 43.4345,160.432 42.5,161.5 Z"/></g>
<g><path style="opacity:0.769" fill="#a8acad" d="M 102.5,161.5 C 102.5,160.5 102.5,159.5 102.5,158.5C 98.2273,158.081 94.2273,158.748 90.5,160.5C 90.9528,159.542 91.6195,158.708 92.5,158C 96.1516,157.501 99.8183,157.335 103.5,157.5C 103.768,159.099 103.434,160.432 102.5,161.5 Z"/></g>
<g><path style="opacity:0.384" fill="#969b9c" d="M 132.5,159.5 C 130.031,160.317 127.365,160.817 124.5,161C 127.695,161.181 130.695,161.681 133.5,162.5C 130.167,162.5 126.833,162.5 123.5,162.5C 123.5,161.5 123.5,160.5 123.5,159.5C 126.5,159.5 129.5,159.5 132.5,159.5 Z"/></g>
<g><path style="opacity:0.173" fill="#8c9192" d="M 260.5,167.5 C 261.449,166.848 262.615,166.514 264,166.5C 265.681,166.608 266.848,167.275 267.5,168.5C 265.283,167.631 262.95,167.298 260.5,167.5 Z"/></g>
</svg>
